{
  "asset": {
    "generator": "Khronos glTF Blender I/O v4.2.60",
    "version": "2.0"
  },
  "scene": 0,
  "scenes": [
    {
      "name": "Scene",
      "nodes": [0, 1]
    }
  ],
  "nodes": [
    {
      "name": "Circle",
      "scale": [
        0.006796900648623705,
        0.006796900648623705,
        0.006796900648623705
      ]
    },
    {
      "mesh": 0,
      "name": "path5",
      "rotation": [0.7071068286895752, 0, 0, 0.7071068286895752],
      "scale": [60, 60, 60]
    }
  ],
  "meshes": [
    {
      "name": "path5",
      "primitives": [
        {
          "attributes": {
            "POSITION": 0,
            "NORMAL": 1,
            "TEXCOORD_0": 2
          },
          "indices": 3
        }
      ]
    }
  ],
  "accessors": [
    {
      "bufferView": 0,
      "componentType": 5126,
      "count": 5024,
      "max": [0.04080721735954285, 0.00692097470164299, 0.009398020803928375],
      "min": [
        -0.006655494682490826,
        -0.006796897854655981,
        -0.04701739177107811
      ],
      "type": "VEC3"
    },
    {
      "bufferView": 1,
      "componentType": 5126,
      "count": 5024,
      "type": "VEC3"
    },
    {
      "bufferView": 2,
      "componentType": 5126,
      "count": 5024,
      "type": "VEC2"
    },
    {
      "bufferView": 3,
      "componentType": 5123,
      "count": 29952,
      "type": "SCALAR"
    }
  ],
  "bufferViews": [
    {
      "buffer": 0,
      "byteLength": 60288,
      "byteOffset": 0,
      "target": 34962
    },
    {
      "buffer": 0,
      "byteLength": 60288,
      "byteOffset": 60288,
      "target": 34962
    },
    {
      "buffer": 0,
      "byteLength": 40192,
      "byteOffset": 120576,
      "target": 34962
    },
    {
      "buffer": 0,
      "byteLength": 59904,
      "byteOffset": 160768,
      "target": 34963
    }
  ],
  "buffers": [
    {
      "byteLength": 220672,
      "uri": "scene.bin"
    }
  ]
}
